<svg xmlns="http://www.w3.org/2000/svg" id="Warstwa_1" data-name="Warstwa 1" viewBox="0 0 153 19" width="100%" height="100%" preserveAspectRatio="xMidYMid">
  <defs>
    <style>
      .cls-1{fill:#ffd815;}
    </style>
  </defs>
  <title>
    gwiazdki
  </title>
  <polygon class="cls-1" points="10.33 0.06 13.37 6.32 20.26 7.27 15.24 12.09 16.47 18.94 10.33 15.66 4.2 18.94 5.42 12.09 0.41 7.27 7.3 6.32 10.33 0.06"/>
  <polygon class="cls-1" points="43.42 0.06 46.45 6.32 53.34 7.27 48.33 12.09 49.55 18.94 43.42 15.66 37.28 18.94 38.51 12.09 33.49 7.27 40.38 6.32 43.42 0.06"/>
  <polygon class="cls-1" points="76.5 0.06 79.53 6.32 86.42 7.27 81.41 12.09 82.63 18.94 76.5 15.66 70.37 18.94 71.59 12.09 66.58 7.27 73.47 6.32 76.5 0.06"/>
  <polygon class="cls-1" points="109.58 0.06 112.62 6.32 119.51 7.27 114.49 12.09 115.72 18.94 109.58 15.66 103.45 18.94 104.67 12.09 99.66 7.27 106.55 6.32 109.58 0.06"/>
  <polygon class="cls-1" points="142.67 0.06 145.7 6.32 152.59 7.27 147.58 12.09 148.8 18.94 142.67 15.66 136.53 18.94 137.76 12.09 132.74 7.27 139.63 6.32 142.67 0.06"/>
</svg>
